<svg xmlns="http://www.w3.org/2000/svg" viewBox="0 0 256 256">
  <defs>
    <style>
      .cls-1 {
        fill: #c3d3db;
      }

      .cls-2 {
        fill: #cde0d4;
      }

      .cls-3 {
        fill: none;
        stroke: #000;
        stroke-linecap: round;
        stroke-linejoin: round;
        stroke-width: 2px;
      }
    </style>
  </defs>
  <title>Artboard 11</title>
  <g id="iconAnemoiBackground">
    <g id="iconBorder">
      <path d="M246,10V246H10V10H246M256,0H0V256H256V0Z"/>
    </g>
  </g>
  <g id="iconAnemoiCircles">
    <circle class="cls-1" cx="112" cy="91" r="30"/>
    <circle class="cls-1" cx="183" cy="119" r="30"/>
    <circle class="cls-1" cx="136" cy="173" r="30"/>
  </g>
  <g id="wind">
    <g id="windFill">
      <path class="cls-2" d="M195.65,127.59a55.87,55.87,0,0,1-66.93,42A44.7,44.7,0,0,1,95.14,116,35.75,35.75,0,0,1,138,89.17a28.6,28.6,0,0,1,21.5,34.26,22.89,22.89,0,0,1-27.42,17.2A18.31,18.31,0,0,1,118.3,118.7a14.64,14.64,0,0,1,17.54-11,11.73,11.73,0,0,1,8.81,14,9.38,9.38,0,0,1-11.23,7,7.5,7.5,0,0,1-5.64-9"/>
    </g>
    <g id="winfPath">
      <path class="cls-3" d="M191,123.34a55.87,55.87,0,0,1-66.93,42,44.68,44.68,0,0,1-33.58-53.54,35.74,35.74,0,0,1,42.83-26.87,28.6,28.6,0,0,1,21.49,34.27,22.87,22.87,0,0,1-27.41,17.19,18.31,18.31,0,0,1-13.76-21.93,14.65,14.65,0,0,1,17.55-11,11.7,11.7,0,0,1,8.8,14,9.37,9.37,0,0,1-11.23,7,7.5,7.5,0,0,1-5.63-9"/>
    </g>
  </g>
</svg>
