<svg xmlns="http://www.w3.org/2000/svg" viewBox="0 0 256 256">
  <defs>
    <style>
      .cls-1 {
        fill: #7f6e7c;
      }

      .cls-2 {
        fill: #e2dee1;
      }

      .cls-3 {
        fill: none;
        stroke: #000;
        stroke-miterlimit: 10;
      }
    </style>
  </defs>
  <title>Artboard 4</title>
  <g id="iconHadesBackground">
    <path d="M246,10V246H10V10H246M256,0H0V256H256V0Z"/>
  </g>
  <g id="iconHadesCircles">
    <circle class="cls-1" cx="99" cy="98" r="30"/>
    <circle class="cls-1" cx="170" cy="126" r="30"/>
    <circle class="cls-1" cx="123" cy="180" r="30"/>
  </g>
  <g id="scythe">
    <g id="scytheFill">
      <path id="rectangle" d="M125.16,95.55a3.33,3.33,0,0,0-6.66,0v82.12a3.33,3.33,0,0,0,6.66,0V95.55Z"/>
      <path id="metal" class="cls-2" d="M125.16,100v17.75c23.3-11.09,38.84,5.55,38.84,5.55C164,103.32,125.16,100,125.16,100Z"/>
    </g>
    <path id="scythePath" class="cls-3" d="M116.28,175.78V93a3,3,0,0,1,3-3h.66a3,3,0,0,1,3,3v82.78a3,3,0,0,1-3,3h-.66A3,3,0,0,1,116.28,175.78Zm6.66-60.26c23.3-11.09,38.84,5.55,38.84,5.55,0-20-38.84-23.3-38.84-23.3"/>
  </g>
</svg>
