<svg xmlns="http://www.w3.org/2000/svg" viewBox="0 0 256 256">
  <defs>
    <style>
      .cls-1 {
        fill: #cff49f;
      }

      .cls-2 {
        fill: #0f6a36;
      }

      .cls-3 {
        fill: #ab1d38;
      }

      .cls-4 {
        fill: #0e7f40;
      }

      .cls-5 {
        fill: #231f20;
      }

      .cls-6 {
        fill: none;
        stroke: #231f20;
        stroke-linecap: round;
        stroke-miterlimit: 10;
        stroke-width: 2px;
      }
    </style>
  </defs>
  <title>Artboard 8</title>
  <g id="iconPersephoneBackground">
    <g id="iconBorder">
      <path d="M246,10V246H10V10H246M256,0H0V256H256V0Z"/>
    </g>
  </g>
  <g id="iconPersephoneCircles">
    <circle class="cls-1" cx="99" cy="92" r="30"/>
    <circle class="cls-1" cx="170" cy="120" r="30"/>
    <circle class="cls-1" cx="123" cy="174" r="30"/>
  </g>
  <g id="flower">
    <g id="roseFill">
      <path class="cls-2" d="M154.16,127.46a11,11,0,0,0-10.93,6.73s-1.68,3.36-5,2.52-2.52,7.56.84,4.2,9.24-6.72,11.76-5S141.55,146,141.55,146s-1.68,7.56,8.4.84,8.41-5.88,10.09-13.45,0-6.72,3.36-9.24S155,124.1,154.16,127.46Z"/>
      <path class="cls-2" d="M104.12,135.87c2.52-1.68,8.41,1.68,11.77,5s4.2-5,.84-4.2-5-2.52-5-2.52a11,11,0,0,0-10.93-6.73c-.84-3.36-12.6-5.88-9.24-3.36s1.68,1.68,3.36,9.24,0,6.73,10.08,13.45,8.41-.84,8.41-.84S101.6,137.55,104.12,135.87Z"/>
      <path class="cls-3" d="M134,112.34c13.44-5.88,10.08-12.6,5.88-20.17s-2.52-10.08-4.2-12.6-11.76,0-11.76,0c-5.88.84-4.2,4.2-4.2,4.2,1.68,15.13-3.36,10.09-3.36,22.69S134,112.34,134,112.34Z"/>
      <path class="cls-4" d="M145.75,123.26c-1.68-6.72-5-7.56-5-7.56-5,4.2,2.52.84,1.68,7.56S147.43,130,145.75,123.26Z"/>
      <path class="cls-4" d="M123.07,116.54s-3.36-4.2-7.56,0-3.37,5-3.37,5S121.39,120.74,123.07,116.54Z"/>
      <path class="cls-4" d="M142.12,114.17c3.37,1.56,7.83-1,7.83-1,0-6.09,1.54-8.19,2.75-8.91a.54.54,0,0,0-.16-1c-1.3-.25-3.2,0-5.11,2.35l-5.88,5.88A2,2,0,0,0,142.12,114.17Z"/>
      <path class="cls-5" d="M147.43,137.55l-11.76,7.56s-5.88,4.2-6.72,5.88,1.68-14.28,1.68-16.8,3-8.78,5.88-16c1.68-4.2-.84-3.36-.84-3.36L128,116a2.41,2.41,0,0,0-1.83,3.39c1.42,3.08,3.31,7.86,2.77,10.55-.84,4.21,0,16-5,30.25l-2.52-10.08-9.25-9.24a1.18,1.18,0,0,0-1.68,0L119.71,151s2.52,13.44,3.36,13.44S117.19,193,117.19,193l1.68-.84,7.56-32.77s1.68-6.72,12.6-14.28S147.43,137.55,147.43,137.55Z"/>
    </g>
    <g id="rosePath">
      <path class="cls-6" d="M152.24,124.94a11,11,0,0,0-10.93,6.72s-1.68,3.37-5,2.53-2.52,7.56.84,4.2,9.25-6.73,11.77-5-9.25,10.09-9.25,10.09S138,151,148,144.27s8.4-5.88,10.08-13.45,0-6.72,3.36-9.24S153.08,121.58,152.24,124.94Z"/>
      <path class="cls-6" d="M98.84,124.94a11,11,0,0,1,10.93,6.72s1.68,3.37,5,2.53,2.52,7.56-.84,4.2-9.24-6.73-11.76-5,9.24,10.09,9.24,10.09,1.68,7.56-8.4.84S94.64,138.39,93,130.82s0-6.72-3.36-9.24S98,121.58,98.84,124.94Z"/>
      <path class="cls-6" d="M122,77.05s10.08-2.52,11.76,0,0,5,4.2,12.6,7.57,14.29-5.88,20.17c0,0-17.64,6.72-17.64-5.88s5-7.56,3.36-22.69C117.79,81.25,116.11,77.89,122,77.05Z"/>
      <path class="cls-6" d="M138.79,113.18s3.36.84,5,7.56-4.2,6.72-3.36,0S133.75,117.38,138.79,113.18Z"/>
      <path class="cls-6" d="M121.15,114s-3.36-4.2-7.56,0-3.36,5-3.36,5S119.47,118.22,121.15,114Z"/>
      <path class="cls-6" d="M145.52,103.1c1.9-2.38,3.81-2.61,5.1-2.35a.54.54,0,0,1,.16,1c-1.21.72-2.74,2.82-2.74,8.91,0,0-4.47,2.55-7.84,1a2,2,0,0,1-.57-2.66Z"/>
      <path class="cls-6" d="M133.75,112.34l-7.66,1.18a2.41,2.41,0,0,0-1.83,3.39c1.42,3.07,3.31,7.85,2.77,10.55-.84,4.2,0,16-5,30.25l-2.52-10.08-9.24-9.24a1.18,1.18,0,0,0-1.68,0h0l9.24,10.08s2.52,13.44,3.36,13.44-5.88,28.57-5.88,28.57l1.68-.84,7.56-32.77s1.68-6.72,12.6-14.28,8.41-7.56,8.41-7.56l-11.77,7.56s-5.88,4.2-6.72,5.88,1.68-14.28,1.68-16.81,3-8.77,5.88-16C136.27,111.5,133.75,112.34,133.75,112.34Z"/>
    </g>
  </g>
</svg>
