<svg xmlns="http://www.w3.org/2000/svg" viewBox="0 0 256 256">
  <defs>
    <style>
      .cls-1 {
        fill: #0055e7;
      }

      .cls-2 {
        fill: #ffab00;
      }

      .cls-3 {
        fill: none;
        stroke: #000;
        stroke-miterlimit: 10;
      }
    </style>
  </defs>
  <title>Artboard 2</title>
  <g id="iconPoseidenBackground">
    <g id="icon2Border">
      <path d="M246,10V246H10V10H246M256,0H0V256H256V0Z"/>
    </g>
  </g>
  <g id="iconPoseidenCircles">
    <circle class="cls-1" cx="109" cy="98" r="30"/>
    <circle class="cls-1" cx="180" cy="126" r="30"/>
    <circle class="cls-1" cx="133" cy="180" r="30"/>
  </g>
  <g id="trident">
    <path id="tridentFill" class="cls-2" d="M79.36,176.38a.79.79,0,0,1-.11-1.37c6.18-4.17,34.78-24,33.9-32.76-.76-7.63-4.51-6.55-6.1-9.92S101,117.08,116.2,114s9.91-6.86,9.91-6.86l-3-1.52,19.83-9.15L133,113.27s-.77-4.57-3.82-2.29-15.25,10.68-14.48,14.49,8.38,9.15,19.82-.76,9.91-5.34,13-10.68c0,0,.77-2.28-6.1-4.57,0,0,14.49-2.29,22.12-6.86,0,0-9.15,16.77-9.15,23.63,0,0-1.53-9.15-5.34-6.86s-16,19.83-16.78,28.21c-.74,8.14,5.23,8.18,9.53.71a12.35,12.35,0,0,1,.89-1.37c1.61-2.12,6.61-8.61,7.88-9.25,1.53-.76-.76-2.29-.76-2.29L165,125.47s-5.34,14.49-11.44,21.35c0,0-.76-6.1-3.81-2.29s-3.05,13.73-9.15,17.54-10.67,3.05-16-3.81,0-9.91-9.91-3.81-28.21,25.16-28.21,25.16Z"/>
    <path id="tridentPath" class="cls-3" d="M76.46,172.88a.78.78,0,0,1-.11-1.36c6.18-4.17,34.78-24,33.9-32.77-.76-7.63-4.51-6.55-6.1-9.91-1.66-3.52-6.1-15.25,9.15-18.3s9.91-6.87,9.91-6.87l-3-1.52L140,93l-9.91,16.77s-.77-4.57-3.82-2.28S111,118.16,111.78,122s8.38,9.15,19.82-.76,9.91-5.34,13-10.67c0,0,.76-2.29-6.1-4.58,0,0,14.49-2.29,22.11-6.86,0,0-9.15,16.77-9.15,23.64,0,0-1.52-9.15-5.33-6.87s-16,19.83-16.78,28.22c-.74,8.13,5.23,8.17,9.53.7a13.36,13.36,0,0,1,.89-1.37c1.61-2.11,6.61-8.61,7.88-9.25,1.53-.76-.76-2.28-.76-2.28L162.1,122s-5.34,14.49-11.44,21.35c0,0-.76-6.1-3.81-2.28s-3,13.72-9.15,17.53-10.67,3.05-16-3.81,0-9.91-9.91-3.81-28.22,25.16-28.22,25.16Z"/>
  </g>
</svg>
